# xmcd
#
# Track frame offsets: 
#        150
#        22044
#        38085
#        54610
#        68116
#        82918
#        99888
#        124496
#        134750
#        154568
#        175089
#        192254
#
# Disc length: 2749 seconds
#
# Revision: 1
# Processed by: cddbd v1.5.2PL0 Copyright (c) Steve Scherf et al.
# Submitted via: ExactAudioCopyFreeDBPlugin 1.0
#
DISCID=9d0abb0c
DTITLE=Kode9 and the Spaceape - Black Sun
DYEAR=2011
DGENRE=Dubstep
TTITLE0=Black Smoke (feat. Cha Cha)
TTITLE1=Promises
TTITLE2=Am I
TTITLE3=Love Is the Drug (feat. Cha Cha)
TTITLE4=Neon Red Sign (feat. Cha Cha)
TTITLE5=The Cure (feat. Cha Cha)
TTITLE6=Black Sun (Partial Eclipse Version)
TTITLE7=Hole in the Sky
TTITLE8=Otherman
TTITLE9=Green Sun
TTITLE10=Bullet Against Bone
TTITLE11=Kryon (feat. Flying Lotus)
EXTD=
EXTT0=
EXTT1=
EXTT2=
EXTT3=
EXTT4=
EXTT5=
EXTT6=
EXTT7=
EXTT8=
EXTT9=
EXTT10=
EXTT11=
PLAYORDER=
